<mxfile host="app.diagrams.net" modified="2023-10-06T17:07:08.772Z" agent="Mozilla/5.0 (Windows NT 10.0; Win64; x64; rv:109.0) Gecko/20100101 Firefox/118.0" etag="nZf7KsbogDpG3Y4wZ3LL" version="22.0.3" type="device">
  <diagram name="Seite-1" id="Buf-V82mNLHq6IPBUSCK">
    <mxGraphModel dx="1050" dy="566" grid="1" gridSize="10" guides="1" tooltips="1" connect="1" arrows="1" fold="1" page="1" pageScale="1" pageWidth="827" pageHeight="1169" math="0" shadow="0">
      <root>
        <mxCell id="0" />
        <mxCell id="1" parent="0" />
        <mxCell id="rZwXK563WTNMWrNBOwhi-1" value="" style="ellipse;shape=cloud;whiteSpace=wrap;html=1;fillColor=#006666;fillOpacity=20;strokeColor=none;" parent="1" vertex="1">
          <mxGeometry x="5" y="290" width="190" height="90" as="geometry" />
        </mxCell>
        <mxCell id="8EC7erHqmfX4kJkwVbU8-1" value="" style="ellipse;shape=cloud;whiteSpace=wrap;html=1;fillColor=#006666;fillOpacity=20;strokeColor=none;" parent="1" vertex="1">
          <mxGeometry x="160" y="330" width="190" height="90" as="geometry" />
        </mxCell>
        <mxCell id="10NsXPcwAe8AEz9bs2Zb-3" value="Strukturdiagramme" style="rounded=0;whiteSpace=wrap;html=1;shadow=1;" parent="1" vertex="1">
          <mxGeometry x="120" y="120" width="160" height="40" as="geometry" />
        </mxCell>
        <mxCell id="10NsXPcwAe8AEz9bs2Zb-5" value="Objektdiagramm" style="rounded=0;whiteSpace=wrap;html=1;shadow=1;" parent="1" vertex="1">
          <mxGeometry x="110" y="215" width="160" height="40" as="geometry" />
        </mxCell>
        <mxCell id="10NsXPcwAe8AEz9bs2Zb-6" value="Klassendiagramm" style="rounded=0;whiteSpace=wrap;html=1;shadow=1;" parent="1" vertex="1">
          <mxGeometry x="300" y="180" width="160" height="40" as="geometry" />
        </mxCell>
        <mxCell id="10NsXPcwAe8AEz9bs2Zb-7" value="..." style="rounded=0;whiteSpace=wrap;html=1;shadow=1;" parent="1" vertex="1">
          <mxGeometry x="30" y="190" width="50" height="35" as="geometry" />
        </mxCell>
        <mxCell id="10NsXPcwAe8AEz9bs2Zb-10" value="Objektkonstellationen&lt;br&gt;zur Laufzeit" style="ellipse;shape=cloud;whiteSpace=wrap;html=1;shadow=1;" parent="1" vertex="1">
          <mxGeometry x="20" y="300" width="160" height="70" as="geometry" />
        </mxCell>
        <mxCell id="10NsXPcwAe8AEz9bs2Zb-11" value="Objektkonstellationen&lt;br&gt;der Realwelt" style="ellipse;shape=cloud;whiteSpace=wrap;html=1;shadow=1;" parent="1" vertex="1">
          <mxGeometry x="170" y="340" width="170" height="70" as="geometry" />
        </mxCell>
        <mxCell id="10NsXPcwAe8AEz9bs2Zb-15" value="" style="endArrow=none;html=1;rounded=0;exitX=0.5;exitY=0;exitDx=0;exitDy=0;entryX=0.25;entryY=1;entryDx=0;entryDy=0;" parent="1" source="10NsXPcwAe8AEz9bs2Zb-7" target="10NsXPcwAe8AEz9bs2Zb-3" edge="1">
          <mxGeometry width="50" height="50" relative="1" as="geometry">
            <mxPoint x="390" y="320" as="sourcePoint" />
            <mxPoint x="190" y="190" as="targetPoint" />
          </mxGeometry>
        </mxCell>
        <mxCell id="10NsXPcwAe8AEz9bs2Zb-16" value="" style="endArrow=none;html=1;rounded=0;entryX=0.5;entryY=1;entryDx=0;entryDy=0;exitX=0.5;exitY=0;exitDx=0;exitDy=0;" parent="1" source="10NsXPcwAe8AEz9bs2Zb-5" target="10NsXPcwAe8AEz9bs2Zb-3" edge="1">
          <mxGeometry width="50" height="50" relative="1" as="geometry">
            <mxPoint x="390" y="320" as="sourcePoint" />
            <mxPoint x="440" y="270" as="targetPoint" />
          </mxGeometry>
        </mxCell>
        <mxCell id="10NsXPcwAe8AEz9bs2Zb-17" value="" style="endArrow=none;html=1;rounded=0;entryX=0.75;entryY=1;entryDx=0;entryDy=0;exitX=0.5;exitY=0;exitDx=0;exitDy=0;" parent="1" source="10NsXPcwAe8AEz9bs2Zb-6" target="10NsXPcwAe8AEz9bs2Zb-3" edge="1">
          <mxGeometry width="50" height="50" relative="1" as="geometry">
            <mxPoint x="390" y="320" as="sourcePoint" />
            <mxPoint x="440" y="270" as="targetPoint" />
          </mxGeometry>
        </mxCell>
        <mxCell id="10NsXPcwAe8AEz9bs2Zb-20" value="" style="endArrow=none;html=1;rounded=0;entryX=0.25;entryY=1;entryDx=0;entryDy=0;exitX=0.625;exitY=0.2;exitDx=0;exitDy=0;exitPerimeter=0;" parent="1" source="10NsXPcwAe8AEz9bs2Zb-10" target="10NsXPcwAe8AEz9bs2Zb-5" edge="1">
          <mxGeometry width="50" height="50" relative="1" as="geometry">
            <mxPoint x="390" y="320" as="sourcePoint" />
            <mxPoint x="440" y="270" as="targetPoint" />
          </mxGeometry>
        </mxCell>
        <mxCell id="10NsXPcwAe8AEz9bs2Zb-21" value="" style="endArrow=none;html=1;rounded=0;entryX=0.75;entryY=1;entryDx=0;entryDy=0;exitX=0.4;exitY=0.1;exitDx=0;exitDy=0;exitPerimeter=0;" parent="1" source="10NsXPcwAe8AEz9bs2Zb-11" target="10NsXPcwAe8AEz9bs2Zb-5" edge="1">
          <mxGeometry width="50" height="50" relative="1" as="geometry">
            <mxPoint x="390" y="320" as="sourcePoint" />
            <mxPoint x="440" y="270" as="targetPoint" />
          </mxGeometry>
        </mxCell>
        <mxCell id="10NsXPcwAe8AEz9bs2Zb-26" value="verwenden fÃ¼r" style="text;html=1;strokeColor=none;fillColor=none;align=center;verticalAlign=middle;whiteSpace=wrap;rounded=0;" parent="1" vertex="1">
          <mxGeometry x="144" y="270" width="80" height="20" as="geometry" />
        </mxCell>
        <mxCell id="Yi1FiPtXAFcOY1d8Ir0r-3" value="..." style="rounded=0;whiteSpace=wrap;html=1;strokeColor=none;fillColor=none;" parent="1" vertex="1">
          <mxGeometry x="370" y="280" width="60" height="30" as="geometry" />
        </mxCell>
        <mxCell id="Yi1FiPtXAFcOY1d8Ir0r-4" value="" style="endArrow=none;html=1;rounded=0;entryX=0.5;entryY=1;entryDx=0;entryDy=0;exitX=0.5;exitY=0;exitDx=0;exitDy=0;" parent="1" source="Yi1FiPtXAFcOY1d8Ir0r-3" target="10NsXPcwAe8AEz9bs2Zb-6" edge="1">
          <mxGeometry width="50" height="50" relative="1" as="geometry">
            <mxPoint x="590" y="285" as="sourcePoint" />
            <mxPoint x="640" y="235" as="targetPoint" />
          </mxGeometry>
        </mxCell>
      </root>
    </mxGraphModel>
  </diagram>
</mxfile>
